<?xml version="1.0" encoding="utf-8"?>
<!-- Generator: Adobe Illustrator 27.7.0, SVG Export Plug-In . SVG Version: 6.00 Build 0)  -->
<svg version="1.1" id="图层_1" xmlns="http://www.w3.org/2000/svg" xmlns:xlink="http://www.w3.org/1999/xlink" x="0px" y="0px"
	 viewBox="0 0 192 192" style="enable-background:new 0 0 192 192;" xml:space="preserve">
<style type="text/css">
	.st0{fill:none;stroke:#000000;stroke-width:4;stroke-linecap:round;stroke-linejoin:round;}
</style>
<path class="st0" d="M162.9,33.7c-3.9-5.7-10.6-8.7-19.3-8.7c-2.5,0-4.9,0.2-7.1,0.6c-8.1,1.6-28.2,13.2-35,37.7
	c-0.8,2.8,0.6,5.8,3,6.7c0.6,0.2,1.2,0.3,1.8,0.2c5.3-0.5,9.2-0.1,10.4,1.4c1,1.2,1.3,4.1,1,8.2c-0.4,5.5-3.1,11.8-5.9,18
	c-1.4,2.8-5.5,11.5-8.1,11.5c-0.6,0-1.6-0.7-2.6-2c-4.8-6-5.8-17.3-6.6-27.3c-0.3-3.3-0.6-6.5-1-9.4L93,66.6
	C92.1,60.7,91.1,54,89.5,48c-1.9-6.9-6.5-15.8-13.3-18.2c-1.5-0.5-3.1-0.7-4.7-0.7c-6.4,0-12.2,3.5-13.8,4.6
	c-6.8,4.7-12.4,10.4-17.8,15.9c-4,4.2-8.2,8.5-13,12.3c-1.2,1-2,3.6-2,5.3c0,2,1,3.9,2.6,4.8c0.5,0.3,0.6,0.5,1,1.4
	c0.7,1.5,2.1,4.6,6,5.3c3.5,0.6,6.7-0.6,9.4-1.6c1.5-0.5,2.9-1,3.8-1c0.3,0,0.7,0,1.5,1.5c1.6,3.1,2.5,6.6,3.4,10.4
	c0.5,1.9,1,3.8,1.6,5.8c2.1,6.6,3.7,13.7,5.3,21.3l1.5,6.7c3.3,15.8,7.9,37.5,20.7,43.6c1.9,0.9,4.1,1.4,6.6,1.4
	c6.3,0,12.9-3.2,16.5-5.8c10.9-7.4,20.9-18.3,30.7-33.3c17.9-27.4,28.9-60.5,30.8-72.1C167.9,46.5,166.8,39.2,162.9,33.7L162.9,33.7
	z M157.2,53.8c-1.4,8.2-10.8,39.6-29.1,67.7c-9,13.9-18.1,23.9-28,30.6c-3.7,2.6-11.1,5.4-14.6,3.7C77,151.6,73,133,70.1,119.4
	l-1.5-6.9c-1.7-7.8-3.4-15.2-5.6-22.2c-0.5-1.7-1-3.5-1.4-5.2c-1.1-4.2-2.2-8.6-4.4-12.9c-2.3-4.5-5.5-6.7-9.5-6.7
	c-2.3,0-4.5,0.8-6.6,1.5c-1.5,0.5-2.9,1-4.5,1.1c-0.1-0.2-0.3-0.5-0.4-0.8c3.4-3.1,6.7-6.4,9.8-9.7c5.3-5.4,10.2-10.5,16.2-14.6
	c2.2-1.4,5.8-3.1,9.1-3.1c0.8,0,1.5,0.1,2.1,0.3c2.4,0.8,5.5,5.9,7,11.1c1.4,5.3,2.4,11.6,3.2,17.2l0.6,4.2c0.4,2.7,0.6,5.6,0.9,8.7
	c1,11.7,2.1,25,9.1,33.6c2.9,3.6,6.1,5.4,9.4,5.4c8.1,0,13-10.3,16.7-18c2.9-6.4,6-13.9,6.6-21.2c0.6-7.6-0.5-12.8-3.4-16.4
	c-2.9-3.7-7.1-4.8-10.6-5.1c7.6-16.5,22.1-22.7,25-23.3c1.7-0.3,3.6-0.5,5.6-0.5c3.3,0,9.2,0.6,11.9,4.6
	C157.6,43.3,158.2,47.7,157.2,53.8L157.2,53.8z"/>
</svg>
