<?xml version="1.0" encoding="utf-8"?>
<!-- Generator: Adobe Illustrator 27.7.0, SVG Export Plug-In . SVG Version: 6.00 Build 0)  -->
<svg version="1.1" id="图层_1" xmlns="http://www.w3.org/2000/svg" xmlns:xlink="http://www.w3.org/1999/xlink" x="0px" y="0px"
	 viewBox="0 0 192 192" style="enable-background:new 0 0 192 192;" xml:space="preserve">
<style type="text/css">
	.st0{fill:none;stroke:#000000;stroke-width:10;stroke-linecap:round;stroke-linejoin:round;}
</style>
<path class="st0" d="M157.2,53.8c-1.4,8.2-10.8,39.6-29.1,67.7c-9,13.9-18.1,23.9-28,30.6c-3.7,2.6-11.1,5.4-14.6,3.7
	C77,151.6,73,133,70.1,119.4l-1.5-6.9c-1.7-7.8-3.4-15.2-5.6-22.2c-0.5-1.7-1-3.5-1.4-5.2c-1.1-4.2-2.2-8.6-4.4-12.9
	c-2.3-4.5-5.5-6.7-9.5-6.7c-2.3,0-4.5,0.8-6.6,1.5c-1.5,0.5-2.9,1-4.5,1.1c-0.1-0.2-0.3-0.5-0.4-0.8c3.4-3.1,6.7-6.4,9.8-9.7
	c5.3-5.4,10.2-10.5,16.2-14.6c2.2-1.4,5.8-3.1,9.1-3.1c0.8,0,1.5,0.1,2.1,0.3c2.4,0.8,5.5,5.9,7,11.1c1.4,5.3,2.4,11.6,3.2,17.2
	l0.6,4.2c0.4,2.7,0.6,5.6,0.9,8.7c1,11.7,2.1,25,9.1,33.6c2.9,3.6,6.1,5.4,9.4,5.4c8.1,0,13-10.3,16.7-18c2.9-6.4,6-13.9,6.6-21.2
	c0.6-7.6-0.5-12.8-3.4-16.4c-2.9-3.7-7.1-4.8-10.6-5.1c7.6-16.5,22.1-22.7,25-23.3c1.7-0.3,3.6-0.5,5.6-0.5c3.3,0,9.2,0.6,11.9,4.6
	C157.6,43.3,158.2,47.7,157.2,53.8L157.2,53.8z"/>
</svg>
